<?xml version="1.0" encoding="UTF-8"?>
<svg xmlns="http://www.w3.org/2000/svg" width="100%" viewBox="0 0 64 64" fill="none" class="full-svg">
<path d="M64.0014 14.6799V32.5219C47.4349 32.3603 33.9353 19.3788 32.9531 3.01645V0H49.8903C49.8871 0.0823821 49.8871 0.164764 49.8871 0.247146C49.8871 8.11464 56.176 14.5119 64.0014 14.6799Z" fill="#b2dd4c"></path>
<path d="M30.4146 1.26425C30.4146 18.2857 16.8896 32.1417 0 32.6772V14.8161C7.49911 14.2965 13.4205 8.0481 13.4205 0.415078C13.4205 0.275662 13.4173 0.139416 13.4141 0H30.3861C30.4051 0.418248 30.4146 0.839663 30.4146 1.26425Z" fill="#b2dd4c"></path>
<path d="M30.1992 63.9992H13.205C12.3623 57.2407 6.84963 51.9333 0 51.4105V35.2446C15.955 35.796 28.8844 48.2452 30.1992 63.9992Z" fill="#b2dd4c"></path>
<path d="M63.9982 35.334V51.4809C56.8444 51.6647 50.9896 57.0512 50.0708 63.9998H33.0703C34.458 48.0589 47.7454 35.5241 63.9982 35.334Z" fill="#b2dd4c"></path>
</svg>