<?xml version="1.0" encoding="UTF-8"?>
<svg xmlns="http://www.w3.org/2000/svg" width="100%" viewBox="0 0 84 84" fill="none" class="full-svg">
<path d="M59.7531 53.676C65.8395 44.0117 62.7909 31.3348 52.9439 25.3613C43.0968 19.3879 30.1801 22.3799 24.0937 32.0442C18.0073 41.7085 21.0559 54.3854 30.903 60.3589C40.75 66.3323 53.6667 63.3403 59.7531 53.676Z" fill="#b2dd4c"></path>
<path d="M62.881 63.4284C74.4569 63.4284 83.8417 54.2178 83.8417 42.8568C83.8417 31.4958 74.4569 22.2852 62.881 22.2852V63.4284Z" fill="#b2dd4c"></path>
<path d="M20.9603 63.4297C20.9603 74.7907 30.3451 84.0013 41.921 84.0013C53.4968 84.0013 62.8816 74.7907 62.8816 63.4297H20.9603Z" fill="#b2dd4c"></path>
<path d="M41.921 1.71875C30.3451 1.71875 20.9603 10.9294 20.9603 22.2903H62.8816C62.8816 10.9294 53.4968 1.71875 41.921 1.71875Z" fill="#b2dd4c"></path>
<path d="M20.9606 22.2852C9.38479 22.2852 0 31.4958 0 42.8568C0 54.2178 9.38479 63.4284 20.9606 63.4284V22.2852Z" fill="#b2dd4c"></path>
<path d="M20.9607 0.00390625C9.45762 0.0879062 0.158417 9.26071 0.158417 20.5713C0.158417 21.1509 0.188373 21.7179 0.235447 22.2849H20.9607V0.00390625Z" fill="#b2dd4c"></path>
<path d="M84 20.5716C84 9.2106 74.6152 0 63.0394 0C62.988 0 62.9324 0 62.881 0V22.281H83.923C83.97 21.714 84 21.1428 84 20.5674V20.5716Z" fill="#b2dd4c"></path>
<path d="M20.9609 82.2835V63.4297H0.235657C1.1215 73.9381 10.0441 82.2037 20.9609 82.2835Z" fill="#b2dd4c"></path>
<path d="M63.0394 82.2877C74.0247 82.2877 83.0328 73.9885 83.923 63.4297H62.881V82.2835C62.9324 82.2835 62.988 82.2835 63.0394 82.2835V82.2877Z" fill="#b2dd4c"></path>
</svg>